<svg xmlns:xlink="http://www.w3.org/1999/xlink" data-v-338fa738="" width="304" height="96" viewBox="0 0 304 96" fill="none" xmlns="http://www.w3.org/2000/svg"><path d="M231.882 52.6433C233.102 54.0356 236.953 58.4551 236.953 58.4551C236.953 58.4551 229.936 66.5876 226.639 70.3975C224.318 73.0852 221.99 75.766 219.67 78.4538C219.573 78.5715 219.497 78.7101 219.344 78.9317C219.677 78.9525 219.912 78.9802 220.148 78.9802C225.994 78.9802 231.841 78.9733 237.687 78.9941C238.262 78.9941 238.664 78.8348 239.038 78.3983C242.301 74.5954 245.591 70.8131 248.84 66.9963C249.276 66.4837 249.463 66.4837 249.893 66.9894C253.149 70.7993 256.425 74.5884 259.723 78.3637C259.979 78.6616 260.429 78.9595 260.796 78.9595C266.837 78.9941 272.877 78.9872 278.918 78.9872C279.049 78.9872 279.174 78.9595 279.451 78.9317C279.008 78.3845 278.654 77.9135 278.267 77.4701C273.466 71.9076 268.652 66.3521 263.858 60.7827C257.859 53.814 244.421 38.0409 244.421 38.0409L249.373 32.3398C249.373 32.3398 255.795 39.6965 258.725 43.0977C261.655 46.492 264.578 49.9001 267.509 53.2944C273.099 59.7782 278.696 66.262 284.286 72.7458C288.006 77.0614 292.28 82.0143 296 86.323C295.536 86.323 269.808 86.323 257.312 86.3368C256.668 86.3368 256.245 86.129 255.836 85.6372C254.056 83.5314 252.276 81.4324 250.426 79.3889C249.228 78.0658 249.54 78.0589 248.341 79.382C246.492 81.4186 244.711 83.5244 242.931 85.6303C242.522 86.1083 242.107 86.3438 241.463 86.3438C228.966 86.3299 203.35 86.3299 202.747 86.3299C212.507 75.0318 222.171 63.8652 231.882 52.6433Z" fill="black"></path> <path d="M202.796 10.0139C203.322 10.0139 228.807 10.0139 241.193 10C241.989 10 242.585 10.2078 243.125 10.859C245.024 13.1449 246.984 15.3755 248.93 17.6268C249.055 17.7722 249.214 17.8831 249.415 18.0701C250.725 16.56 252.041 15.0499 253.35 13.5398C254.23 12.5215 255.061 11.4478 256.01 10.4988C256.322 10.187 256.938 10.0416 257.416 10.0346C261.739 10 266.061 10.0139 270.384 10.0139C278.419 10.0139 295.356 10.0208 295.938 10.0208C294.726 11.4408 293.576 12.7916 292.502 14.0316C287.84 19.4209 283.164 24.8033 278.502 30.1995C274.776 34.5151 266.872 43.652 266.872 43.652L261.759 37.8886C261.759 37.8886 268.119 30.5528 271.049 27.1585C273.688 24.0967 276.334 21.028 278.973 17.9662C279.133 17.7792 279.264 17.5783 279.507 17.2596C279.119 17.2389 278.863 17.2111 278.613 17.2111C272.739 17.2111 266.865 17.2042 260.998 17.2319C260.637 17.2319 260.166 17.3982 259.938 17.6614C256.841 21.2081 253.772 24.7825 250.704 28.35C250.614 28.4539 250.51 28.5509 250.434 28.6617C249.311 30.1857 249.401 29.9571 248.307 28.6686C245.82 25.7523 243.319 22.8568 240.826 19.9543C240.272 19.3101 239.634 18.7213 239.156 18.0216C238.685 17.3289 238.117 17.1904 237.341 17.1904C231.356 17.2181 225.378 17.2042 219.185 17.2042C219.92 18.084 220.55 18.8598 221.194 19.6149C227.463 26.8953 233.739 34.1688 240.001 41.4492C244.601 46.79 254.375 58.1574 254.375 58.1574C254.375 58.1574 249.602 63.7476 249.36 63.9554C233.905 46.0557 218.354 28.0383 202.796 10.0139Z" fill="black"></path> <path d="M13.4977 47.3034C13.4977 53.7526 18.7484 58.9965 25.1907 58.9965H43.3882V65.4941H25.1907C15.1602 65.4941 7 57.3339 7 47.3034C7 37.273 15.1602 29.1128 25.1907 29.1128H43.3882V35.6104H25.1907C18.7484 35.6035 13.4977 40.8543 13.4977 47.3034Z" fill="black"></path> <path d="M81.4389 47.3025C81.4389 57.333 73.2788 65.5001 63.2483 65.5001C53.2178 65.5001 45.0507 57.3399 45.0507 47.3025C45.0507 37.272 53.2109 29.1118 63.2483 29.1118C73.2788 29.1049 81.4389 37.2651 81.4389 47.3025ZM74.9413 47.3025C74.9413 40.8533 69.6905 35.6095 63.2483 35.6095C56.7991 35.6095 51.5553 40.8602 51.5553 47.3025C51.5553 53.7516 56.8061 58.9955 63.2483 58.9955C69.6905 58.9955 74.9413 53.7447 74.9413 47.3025Z" fill="black"></path> <path d="M121.776 29.105V65.4932H115.278V42.3081L108.884 47.1917L103.585 51.2995L98.2857 47.1917L91.892 42.3081V65.4932H85.3943V29.105L91.892 34.0925L103.585 43.0839L115.278 34.0925L121.776 29.105Z" fill="black"></path> <path d="M163.359 29.105V47.2956C163.359 57.3261 155.199 65.4932 145.162 65.4932C135.124 65.4932 126.964 57.333 126.964 47.2956V29.105H133.462V47.2956C133.462 53.7448 138.713 58.9886 145.155 58.9886C151.597 58.9886 156.848 53.7379 156.848 47.2956V29.105H163.359Z" fill="black"></path> <path d="M204.936 29.1604V65.5486L198.438 60.5611L175.052 42.5159V65.5417H168.555V29.2643L175.052 34.2518L198.445 52.2901V29.105L204.936 29.1604Z" fill="black"></path> <path d="M210.131 65.4932V29.105H216.629V65.4932H210.131Z" fill="black"></path></svg>